<svg width="97" height="77" viewBox="0 0 97 77" fill="none" xmlns="http://www.w3.org/2000/svg">
<path fill-rule="evenodd" clip-rule="evenodd" d="M0.0456252 39.1081C0.0945208 39.9211 0.24762 40.7244 0.501373 41.4983C0.594659 41.8185 0.704305 42.1338 0.82969 42.4427C1.29343 43.507 1.94508 44.4789 2.7534 45.3118L31.901 74.1779C33.7318 75.9862 36.2007 77 38.7731 77C41.3455 77 43.8144 75.9862 45.6452 74.1779C46.5476 73.2898 47.2641 72.2311 47.7534 71.063C48.2426 69.8949 48.4946 68.641 48.4946 67.3744C48.4946 66.1079 48.2426 64.854 47.7534 63.6859C47.2641 62.5178 46.5476 61.4588 45.6452 60.5707L33.077 48.1311L87.3791 48.1311C89.9307 48.1311 92.3778 47.1168 94.182 45.3113C95.9863 43.5058 97 41.057 97 38.5036C97 35.9503 95.9863 33.5017 94.182 31.6962C92.3778 29.8908 89.9307 28.8764 87.3791 28.8764L33.0954 28.8764L45.6634 16.4277C46.5658 15.5395 47.2825 14.4805 47.7717 13.3124C48.2609 12.1443 48.5128 10.8904 48.5128 9.62389C48.5128 8.35735 48.2609 7.10348 47.7717 5.93537C47.2825 4.76727 46.5658 3.70823 45.6634 2.82013C43.832 1.01298 41.3633 3.50465e-06 38.7913 3.7295e-06C36.2193 3.95436e-06 33.7506 1.01298 31.9192 2.82013L2.77163 31.6954C2.68501 31.7821 2.65311 31.9008 2.57561 31.9875C1.77096 32.806 1.12209 33.7643 0.66094 34.8157L0.66094 34.8566C0.633588 34.9341 0.633661 35.0208 0.592634 35.1075C0.229025 36.0821 0.0287691 37.1101 -5.35497e-06 38.15C-5.32706e-06 38.4693 0.0272839 38.7844 0.0500769 39.1128" fill="white"/>
</svg>
