<svg width="155" height="155" viewBox="0 0 155 155" fill="none" xmlns="http://www.w3.org/2000/svg">
<path fill-rule="evenodd" clip-rule="evenodd" d="M143.01 40.2338C144.577 36.7258 145.361 32.9184 145.306 29.0768C145.436 25.2256 144.772 21.3888 143.358 17.8046C141.943 14.2203 139.807 10.9648 137.082 8.24004C134.357 5.51529 131.101 3.37938 127.517 1.96466C123.933 0.549933 120.096 -0.113381 116.244 0.0158197C97.0257 0.0158197 84.8314 12.464 77.4976 24.4257C70.1639 12.464 57.9472 0.0158197 38.7512 0.0158197C34.8998 -0.113381 31.0628 0.549933 27.4783 1.96466C23.8939 3.37938 20.6384 5.51529 17.9136 8.24004C15.1887 10.9648 13.0525 14.2203 11.6378 17.8046C10.223 21.3888 9.55963 25.2256 9.68884 29.0768C9.62737 32.9167 10.4031 36.724 11.9622 40.2338C8.42032 41.6996 5.39319 44.1831 3.26375 47.3703C1.13431 50.5574 -0.00158329 54.3047 3.24683e-06 58.1377V77.5103C-0.00196677 80.9114 0.892574 84.253 2.59357 87.1983C4.29457 90.1436 6.74184 92.5884 9.68884 94.2866V135.628C9.68824 138.172 10.189 140.691 11.1624 143.042C12.1358 145.392 13.5628 147.528 15.3619 149.327C17.161 151.126 19.2969 152.553 21.6477 153.527C23.9984 154.5 26.518 155.001 29.0623 155H125.942C128.487 155.001 131.006 154.5 133.357 153.527C135.708 152.553 137.843 151.126 139.643 149.327C141.442 147.528 142.869 145.392 143.842 143.042C144.815 140.691 145.316 138.172 145.316 135.628V94.2866C148.262 92.5878 150.708 90.1427 152.408 87.1974C154.109 84.2522 155.002 80.911 155 77.5103V58.1377C154.999 54.3034 153.86 50.5556 151.727 47.3692C149.595 44.1827 146.564 41.7009 143.02 40.2383M38.7556 19.3928C50.9498 19.3928 58.8383 29.8133 63.3304 38.6607C42.6886 38.2652 29.0668 36.4921 29.0668 29.0814C28.9226 27.7739 29.074 26.4508 29.51 25.2098C29.9459 23.9687 30.6553 22.8414 31.5854 21.9113C32.5156 20.9812 33.6428 20.272 34.8839 19.8361C36.125 19.4002 37.4481 19.2486 38.7556 19.3928ZM67.818 135.632H29.0712V96.8872H67.818V135.632ZM67.818 77.5103H19.3732V58.1377H67.8088L67.818 77.5103ZM116.253 19.3882C117.561 19.2441 118.884 19.3956 120.125 19.8315C121.366 20.2674 122.494 20.9766 123.424 21.9068C124.354 22.8369 125.063 23.9641 125.499 25.2052C125.935 26.4462 126.087 27.7693 125.942 29.0768C125.942 36.4875 112.33 38.2606 91.6787 38.6561C96.1754 29.8133 104.059 19.3882 116.253 19.3882ZM125.942 135.628H87.1956V96.8827H125.942V135.628ZM135.631 77.5057H87.182V58.1332H135.618L135.631 77.5057Z" fill="#1D1D1D"/>
</svg>
