<svg width="155" height="155" viewBox="0 0 155 155" fill="none" xmlns="http://www.w3.org/2000/svg">
<path fill-rule="evenodd" clip-rule="evenodd" d="M149.326 34.7385L120.262 5.67456C118.463 3.87508 116.327 2.44773 113.976 1.47406C111.626 0.500388 109.106 -0.000516036 106.562 3.98928e-07H19.3744C14.236 3.98928e-07 9.30805 2.04122 5.67463 5.67463C2.04122 9.30804 5.33778e-07 14.236 5.33778e-07 19.3744V135.626C-0.000596826 138.17 0.500198 140.69 1.47364 143.041C2.44709 145.391 3.87405 147.527 5.67325 149.327C7.47245 151.126 9.60852 152.553 11.9594 153.526C14.3103 154.5 16.8299 155.001 19.3744 155H135.626C138.17 155.001 140.69 154.5 143.041 153.526C145.391 152.553 147.528 151.126 149.327 149.327C151.126 147.527 152.553 145.391 153.526 143.041C154.5 140.69 155.001 138.17 155 135.626V48.4383C154.998 43.2995 152.955 38.3717 149.321 34.7385M48.4339 19.3744H77.4978V38.7489H48.4339V19.3744ZM106.562 135.626H48.4384V106.562H106.566L106.562 135.626ZM135.626 135.626H125.95V106.562C125.95 101.423 123.909 96.4953 120.275 92.8619C116.642 89.2284 111.714 87.1872 106.575 87.1872H48.4384C43.3 87.1872 38.372 89.2284 34.7386 92.8619C31.1051 96.4953 29.0639 101.423 29.0639 106.562V135.626H19.3744V19.3744H29.0639V38.7489C29.0633 41.2933 29.5641 43.813 30.5376 46.1638C31.511 48.5147 32.9381 50.6508 34.7373 52.45C36.5365 54.2492 38.6724 55.6763 41.0233 56.6497C43.3742 57.6231 45.894 58.1239 48.4384 58.1233H77.5024C80.0468 58.1239 82.5664 57.6231 84.9173 56.6497C87.2682 55.6763 89.4043 54.2492 91.2035 52.45C93.0027 50.6508 94.4296 48.5147 95.4031 46.1638C96.3765 43.813 96.8773 41.2933 96.8767 38.7489V19.3744H106.566L135.63 48.4383L135.626 135.626Z" fill="#1D1D1D"/>
</svg>
