<svg width="155" height="155" viewBox="0 0 155 155" fill="none" xmlns="http://www.w3.org/2000/svg">
<path fill-rule="evenodd" clip-rule="evenodd" d="M146.37 42.0046L88.2468 3.25588C85.0656 1.13298 81.3267 0 77.5022 0C73.6778 0 69.9391 1.13298 66.7579 3.25588L8.63926 42.0046C5.9823 43.7712 3.80319 46.1673 2.29594 48.9795C0.788695 51.7917 -4.43946e-05 54.9329 5.33779e-07 58.1236V135.626C-0.000596826 138.17 0.500198 140.69 1.47364 143.04C2.44709 145.391 3.87418 147.527 5.67339 149.327C7.47259 151.126 9.60865 152.553 11.9595 153.526C14.3104 154.5 16.8299 155.001 19.3744 155H135.626C138.17 155.001 140.69 154.5 143.04 153.526C145.391 152.553 147.527 151.126 149.327 149.327C151.126 147.527 152.553 145.391 153.526 143.04C154.5 140.69 155.001 138.17 155 135.626V58.128C155 54.9374 154.211 51.7962 152.704 48.984C151.197 46.1718 149.018 43.7759 146.361 42.0093M96.8677 135.63H58.1187V96.8814H96.8677V135.63ZM135.616 135.63H116.242V96.8814C116.243 94.337 115.742 91.8172 114.768 89.4663C113.795 87.1154 112.368 84.9794 110.569 83.1802C108.77 81.381 106.633 79.9539 104.283 78.9804C101.932 78.007 99.4122 77.5065 96.8677 77.5071H58.1187C55.5742 77.5065 53.0547 78.007 50.7038 78.9804C48.353 79.9539 46.2169 81.381 44.4177 83.1802C42.6185 84.9794 41.1914 87.1154 40.218 89.4663C39.2445 91.8172 38.7437 94.337 38.7443 96.8814V135.63H19.3699V58.128L77.4933 19.3793L135.621 58.128L135.616 135.63Z" fill="#1D1D1D"/>
</svg>
