<svg width="165" height="131" viewBox="0 0 165 131" fill="none" xmlns="http://www.w3.org/2000/svg">
<path fill-rule="evenodd" clip-rule="evenodd" d="M0.0776304 66.5345C0.160803 67.9177 0.42123 69.2844 0.852872 70.601C1.01155 71.1457 1.19807 71.6821 1.41135 72.2077C2.20018 74.0185 3.30865 75.6718 4.68364 77.089L54.2645 126.199C57.3788 129.275 61.5785 131 65.9542 131C70.3299 131 74.5296 129.275 77.6439 126.199C79.1788 124.688 80.3978 122.887 81.2299 120.899C82.0621 118.912 82.4908 116.779 82.4908 114.624C82.4908 112.469 82.0621 110.336 81.2299 108.349C80.3978 106.361 79.1788 104.56 77.6439 103.049L56.2651 81.8854L148.635 81.8854C152.975 81.8854 157.137 80.1597 160.207 77.088C163.276 74.0164 165 69.8501 165 65.5061C165 61.1622 163.276 56.9964 160.207 53.9248C157.137 50.8531 152.975 49.1274 148.635 49.1274L56.2963 49.1274L77.6749 27.9483C79.2098 26.4374 80.429 24.6357 81.2612 22.6484C82.0933 20.6611 82.5218 18.5279 82.5218 16.3731C82.5218 14.2183 82.0933 12.0851 81.2612 10.0978C80.429 8.11054 79.2098 6.3088 77.6749 4.79786C74.5596 1.72337 70.3603 -7.94159e-06 65.9852 -7.55911e-06C61.6101 -7.17662e-06 57.4108 1.72337 54.2955 4.79786L4.71464 53.9233C4.56731 54.0708 4.51303 54.2728 4.38121 54.4202C3.01248 55.8127 1.90874 57.4432 1.1243 59.2318L1.1243 59.3015C1.07777 59.4334 1.0779 59.5808 1.00811 59.7283C0.3896 61.3864 0.0489578 63.1353 1.14967e-05 64.9046C1.15442e-05 65.4478 0.0464314 65.9838 0.085203 66.5426" fill="#FFD000"/>
</svg>
